<svg xmlns="http://www.w3.org/2000/svg" viewBox="0 0 340.15 93.34"><defs><style>.cls-1{fill:#fff;}.cls-2{fill:#805333;}.cls-3{fill:#a56a43;}.cls-4{fill:#cf976a;}.cls-5{fill:#802d40;}.cls-6{fill:none;stroke:#805333;stroke-linecap:round;stroke-miterlimit:10;stroke-width:2px;}.cls-7{fill:#333;}.cls-8{fill:#c69c6d;}</style></defs><title>Logo complet blanc - boosted</title><g id="Layer_2" data-name="Layer 2"><g id="Layer_1-2" data-name="Layer 1"><path class="cls-1" d="M139.29,37.35c-.11-.05-.54-.16-.54-.37,0-1.43.16-2.91.16-4.29v-.8c0-.37-.27-3.23-.27-3.6v-2.7c0-.43-.22-3.5-.22-3.87v-3.5c0-.37-.22-3-.27-3.39a6.81,6.81,0,0,0,0-1s0-.16-.06-.21c.11-3.66-.32-7.26-.32-11,0-.42-.17-1.54.21-2,4.47-.16,9.53-.64,14.43-.32,8.87.58,10.34,12.83,6.31,16.75l-1.63,1.43c-.06,0-.16.05-.16.1v.06c0,.16,1.36.95,1.52,1.11s1.9,1.64,2.18,2c4.19,4.82,3,15.05-4.14,16a36.78,36.78,0,0,1-5.44.32l-9.91-.53A7.3,7.3,0,0,1,139.29,37.35Zm8.16-23h.77c2.28,0,3.64-.63,4.24-2.75,0-.06.11-.48.11-.53V8.58c0-1.7-1.41-2.39-3-2.39h-.49c-.17,0-2,.21-2.18.21h-.11l-.16.11V7.3a58.54,58.54,0,0,0,.6,6.1v.74Zm3.87,17.22h.05c2.29,0,3.49-2,3.49-3.92,0-1.37-.93-4-2.45-4.55a15.83,15.83,0,0,0-1.74-.16c-.93,0-1.75.1-2.67.1l.33,7.9c0,.21,1,.21,1,.21a16.74,16.74,0,0,0,1.69.32S151.27,31.57,151.32,31.57Z"/><path class="cls-1" d="M172.6,37.14a8.18,8.18,0,0,1-1.36-.58,10.86,10.86,0,0,1-2.45-1.65,10.7,10.7,0,0,1-1.85-3.6c-1.31-3.82-1.53-8.58-1.69-12.56,0-.37.05-2.12.05-2.49l.6-6.52c.44-1.43.66-2.86,1.15-4.34a.69.69,0,0,1,.1-.16c.06-.06.06-.16.11-.22A25.09,25.09,0,0,1,169,2.38c.32-.48.32-.43.81-.64,4.41-2.12,11.6-2,15.35-1.11a6.72,6.72,0,0,1,3.21,1.85c2.07,1.91,3.27,3.5,3.59,6.25a90.84,90.84,0,0,1,.71,9.44,63.21,63.21,0,0,1-.76,9.54c0,.05-.11.31-.11.37-.16.69-1,4-1.25,4.66A8.34,8.34,0,0,1,183,38a73.9,73.9,0,0,1-8.38-.32C174.12,37.46,173.09,37.35,172.6,37.14Zm2-20.77c-.05,3.49-.11,10.54,2.45,12.4a1.68,1.68,0,0,0,1,.16c2.78,0,5.12.63,5.28-3.18,0-.27.05-2.6.05-6.95v-3c-.05-6.68-1.52-6.73-3.86-6.73-5.12,0-4.57,2.33-4.9,6.78v.48Z"/><path class="cls-1" d="M202.2,37.14a8.18,8.18,0,0,1-1.36-.58,11.32,11.32,0,0,1-2.45-1.65,10.89,10.89,0,0,1-1.85-3.6c-1.3-3.82-1.52-8.58-1.69-12.56,0-.37.06-2.12.06-2.49l.6-6.52c.43-1.43.65-2.86,1.14-4.34a.91.91,0,0,1,.11-.16c.05-.06.05-.16.11-.22a23.49,23.49,0,0,1,1.74-2.64c.33-.48.33-.43.82-.64C203.84-.38,211-.22,214.78.63A6.81,6.81,0,0,1,218,2.48c2.07,1.91,3.26,3.5,3.59,6.25a90.84,90.84,0,0,1,.71,9.44,62,62,0,0,1-.77,9.54c0,.05-.1.31-.1.37-.17.69-1,4-1.26,4.66A8.33,8.33,0,0,1,212.6,38a73.81,73.81,0,0,1-8.38-.32C203.73,37.46,202.69,37.35,202.2,37.14Zm2-20.77c-.06,3.49-.11,10.54,2.45,12.4a1.68,1.68,0,0,0,1,.16c2.77,0,5.11.63,5.28-3.18,0-.27,0-2.6,0-6.95v-3c0-6.68-1.52-6.73-3.86-6.73-5.12,0-4.58,2.33-4.9,6.78v.48Z"/><path class="cls-1" d="M224.9,31.15a3.36,3.36,0,0,1-.44-1.48,2.09,2.09,0,0,1,.38-1.38,7.29,7.29,0,0,0,1-.9,6,6,0,0,0,.87-.69l1.25-.8c.55-.31,2-1.27,2.62-1.16,1.63.32,3.32,4.56,6.09,4.56,3.65,0,3.32-2.39-.38-5.09-1.74-1.27-3.1-2.65-4.79-4C222,12.87,222.83,1.53,235,.1A14.67,14.67,0,0,1,247.59,5c.76,1-2.34,5.2-2.88,5.88-.22.43-.55,1.28-1.09,1.28a3.19,3.19,0,0,1-1.09-.22c-1.74-1.06-3.26-3.12-5.55-3.12A2,2,0,0,0,235.51,12a66.2,66.2,0,0,0,7.73,6.2c4.57,3.13,6.09,9.17,3.81,13.57s-6.53,6.14-11.7,6.14a9.92,9.92,0,0,1-4.63-1.11A7.6,7.6,0,0,0,229,36,12.25,12.25,0,0,1,224.9,31.15Z"/><path class="cls-1" d="M269.41.36l.39,0c.43.27.43,3.34.38,4.08l-.06,1.07A14.63,14.63,0,0,1,270,8.2c0,.06-.06.48-.22.48-.81,0-1.63.16-2.39.11l-.44-.06c-.22.06-1.85.16-2.07.16h-.16c.22,8.59.05,20.83.38,26.77.05,1.11-.22,1.32-1.25,1.59-.27.1-1.14.37-1.2.37h-1c-.65,0-1.09-.11-1.69-.11-1.14,0-2.28.21-3.48.21-.27,0-1.2,0-1.2-.58.11-9,0-20.77-.21-28.35a44.88,44.88,0,0,1-4.63-.06c-.27,0-.87.11-1.14-.21.11-1.75-.11-3.5-.06-5.24.06-.69-.11-3.08.44-3C257.39.68,261,.2,269.41.36Z"/><path class="cls-1" d="M274.36,37.46c-.27,0-1.19-.06-1.19-.59.16-12.93-.55-30.89-.76-34.6v-.8c0-1.21,2-.9,2.83-.9l5.6,0,10.67.32c1.42.32,1.42,2.6,1.42,3.71v.32c0,1.8.48,3.92-2.29,3.92-1.31,0-2.72-.21-8.6-.11V9c0,1.06.16,4.66.27,5.35l6.75-.1c1.52.63,1.47,1.59,1.25,6,0,.43-.05.85-.05,1.33a2.5,2.5,0,0,1-.22.85l-.22.05c-.16.05-2.45,0-3.15,0,0,0-.71.05-.93.05-.87,0-1.69.06-2.56.06h-.7v.1c0,.16,0,.32-.11.48V29c2,0,5.11.05,9.68.16,1.42.69,1.42,4.24,1.42,6.36v1.06c-.33.84-3.05.95-4,.95Z"/><path class="cls-1" d="M304.73,37.67a3.4,3.4,0,0,1-.76-.05c-.71.05-1.41.05-1.69.05h-1.14a19.83,19.83,0,0,1-3.92-.21c-.11-.06-.54-.16-.54-.37,0-1.43.16-2.92.16-4.3V32c0-.37-.27-3.23-.27-3.6V25.69c0-.42-.22-3.5-.22-3.87V18.33c0-.37-.22-3-.27-3.39a6.81,6.81,0,0,0,0-1s0-.16-.06-.21c.11-3.66-.32-7.26-.32-11,0-.43-.17-1.54.21-2,2.62.42,5-.22,9.75,0a53.78,53.78,0,0,1,6.47.37c3.43,1,7.41,3.33,8.82,6.78a3.09,3.09,0,0,0,.22.85c.11.32.87,2.7.93,3s.48,1.91.54,2.28v.58a61,61,0,0,1,.11,8.69c0,.16-.33,2.28-.55,3.13-.49,2.59-1.25,5.83-3,8-4,3.92-7.08,2.86-14.42,3.18Zm.82-29c.16,6.52.16,14,.43,20.72,7.73.74,7.68-4.29,7.62-8.74V18.11a2.91,2.91,0,0,1-.16-.63,15,15,0,0,1,0-2.12l-.16-.21c0-.32-.06-.59-.06-.85C313.06,9.58,313.06,8.36,305.55,8.68Z"/><path class="cls-1" d="M146.8,93a3.4,3.4,0,0,1-.76,0c-.71,0-1.42,0-1.69,0h-1.14a19.83,19.83,0,0,1-3.92-.21c-.11-.06-.54-.16-.54-.37,0-1.43.16-2.92.16-4.3v-.79c0-.37-.27-3.23-.27-3.61V81c0-.42-.22-3.5-.22-3.87V73.65c0-.38-.22-3-.27-3.4a6.68,6.68,0,0,0,0-1s0-.16-.06-.21c.11-3.66-.32-7.27-.32-11,0-.43-.17-1.54.21-2,2.62.42,5-.22,9.75,0a53.78,53.78,0,0,1,6.47.37c3.43,1,7.41,3.33,8.82,6.78a3.09,3.09,0,0,0,.22.85c.11.32.87,2.7.92,3s.49,1.91.55,2.28V70a61,61,0,0,1,.11,8.69c0,.16-.33,2.28-.55,3.13-.49,2.59-1.25,5.83-3,8-4,3.92-7.08,2.86-14.42,3.18Zm.82-29c.16,6.52.16,14,.43,20.72,7.73.74,7.68-4.29,7.62-8.74V73.43a2.91,2.91,0,0,1-.16-.63,15,15,0,0,1,0-2.12l-.16-.21c0-.32-.06-.59-.06-.85C155.13,64.9,155.13,63.68,147.62,64Z"/><path class="cls-1" d="M167.48,90.55c0-2.12-.27-29.36-.33-30.15s-.05-1.65,0-2.49.55-1,.77-1.75l.21-.16a7.68,7.68,0,0,1,1.09,0c2.51,0,14.05-.32,16.55.26,1.31.06.87.06,1.2,1.12l.32,3.49L187,63.42c0,.1-.49.53-.6.63a6.23,6.23,0,0,1-2.23.06c-.77-.06-6.7-.27-7.46-.21,0,.15-.11.63-.11.74V65.7a25.53,25.53,0,0,0,.33,3.6l.11.16a1.49,1.49,0,0,0,.59.11,49,49,0,0,0,6.75,0,5.61,5.61,0,0,0,.77.1c.32.43.27.37.21.8,0,1-.05,5.24-.21,6.51a1.88,1.88,0,0,1-.39.75c-.54.47-7.83-.11-7.89.16l-.05,5.67a2.9,2.9,0,0,0,.16.9c.11,0,.49.05.55.05,3,.21,6.31,0,9.36.21.32,0,.32.43.43.64a14.85,14.85,0,0,1,.22,4.87c0,.21-.11,1.27-.16,1.49a1.81,1.81,0,0,1-.55,1c-.81-.21-5.22.64-19,.11C167.1,92.35,167.48,91.24,167.48,90.55Z"/><path class="cls-1" d="M196.71,92.35c-.06-.63,0-3.6,0-4.24,0-.16,0-.69,0-.79,0-.8-.22-4.4-.22-5.2,0-.31.22-2.91.22-3.23,0-1.48-.11-3,0-4.45,0-.11,0-1,0-1.06,0-.64,0-5.72,0-6.31s0-1.53-.44-1.85a4.34,4.34,0,0,0-1.63,0c-1.15,0-2.34,0-3.49,0h-.59c-.88-.85-.38-5.51-.77-7.63v-.37a5.16,5.16,0,0,0,.28-1c.21-.48,1.3-.48,1.63-.48h2.78c1.19,0,2.72,0,17-.16a.6.6,0,0,1,.05.16c.28.38.17,1,.22,1.38a9.43,9.43,0,0,0,.17,1.75c0,.37.21,2.65.16,3v.53c-.05.48-.16,1.17-.16,1.64,0,1.33-.11,1-2.89,1-.43,0-2.45,0-2.88,0l-.11,1.59.54,24.9a3.83,3.83,0,0,1-.32,1.17c-.33.48-3.87.48-4.9.48H199.7A15.25,15.25,0,0,1,197,93,.63.63,0,0,1,196.71,92.35Z"/><path class="cls-1" d="M214.72,90.55c0-2.12-.27-29.36-.33-30.15s0-1.65,0-2.49.55-1,.76-1.75l.22-.16a7.66,7.66,0,0,1,1.09,0c2.5,0,14-.32,16.55.26,1.3.06.87.06,1.19,1.12l.33,3.49-.33,2.55c0,.1-.49.53-.6.63a6.22,6.22,0,0,1-2.23.06c-.76-.06-6.69-.27-7.45-.21,0,.15-.11.63-.11.74V65.7a24.11,24.11,0,0,0,.33,3.6l.1.16a1.55,1.55,0,0,0,.6.11,49,49,0,0,0,6.75,0,5.5,5.5,0,0,0,.76.1c.33.43.28.37.22.8,0,1,0,5.24-.22,6.51a1.88,1.88,0,0,1-.38.75c-.54.47-7.83-.11-7.89.16L224,83.56a2.9,2.9,0,0,0,.16.9c.11,0,.49.05.54.05,3,.21,6.32,0,9.37.21.32,0,.32.43.43.64a14.85,14.85,0,0,1,.22,4.87c-.06.21-.11,1.27-.16,1.49a1.88,1.88,0,0,1-.55,1c-.82-.21-5.22.64-19,.11C214.34,92.35,214.72,91.24,214.72,90.55Z"/><path class="cls-1" d="M255.59,82.12c1.42,0,4.19,5.15,4.14,5.62a3.3,3.3,0,0,1-1,1.91l-.16.11a15.39,15.39,0,0,1-11.92,3.44l-.66,0c-8.38-1-10.67-11.13-10.67-17.91v-.69c0-6.79,2.29-17,10.67-17.92l.66-.05A15.39,15.39,0,0,1,258.59,60l.16.1a3.3,3.3,0,0,1,1,1.91c0,.48-2.72,5.62-4.14,5.62a3.09,3.09,0,0,1-1.52-1c-7.57-6.46-10,.69-9.91,8.16.06,7.79,2.29,14.74,9.91,8.22A3.09,3.09,0,0,1,255.59,82.12Z"/><path class="cls-1" d="M268.87,92.35c-.06-.63,0-3.6,0-4.24,0-.16.05-.69.05-.79-.05-.8-.21-4.4-.21-5.2,0-.31.21-2.91.21-3.23,0-1.48-.11-3-.05-4.45,0-.11.05-1,.05-1.06,0-.64-.05-5.72-.05-6.31s.05-1.53-.44-1.85a4.34,4.34,0,0,0-1.63,0c-1.14,0-2.34,0-3.48,0h-.6c-.87-.85-.38-5.51-.76-7.63v-.37a6,6,0,0,0,.27-1c.22-.48,1.31-.48,1.63-.48h2.78c1.2,0,2.72,0,17-.16a.53.53,0,0,1,.06.16c.27.38.16,1,.22,1.38a9.42,9.42,0,0,0,.16,1.75c0,.37.22,2.65.16,3v.53c0,.48-.16,1.17-.16,1.64,0,1.33-.11,1-2.88,1-.44,0-2.45,0-2.89,0l-.11,1.59.55,24.9a3.88,3.88,0,0,1-.33,1.17c-.33.48-3.87.48-4.9.48h-1.69a15.29,15.29,0,0,1-2.72-.11A.63.63,0,0,1,268.87,92.35Z"/><path class="cls-1" d="M285.25,68.13c.05-.79.6-4.55.82-5.35a8.31,8.31,0,0,1,5.17-5.93c3.21-1,12.19-1.43,15.24.63,4.3,2.92,6.09,6.26,6.09,12.83,0,5.93,2.07,20.88-8.05,22.47-1.36.21-5.17.47-6.53.47l-1.8,0c-.22,0-.44,0-.65-.11-2.07-.31-4.74-.68-6-2.11-3.48-3.93-4-9.49-4.19-16-.06-1.43-.11-3.23-.11-4.61Zm9.2,12.56c.38,2.92,1.63,4.14,3.92,4.14h.43c2.29,0,5,0,4.85-6.36,0-.64-.06-4.77-.06-5.14v-.85c0-1.27,0-2.44-.11-3.76v-.43c-.05-3.92-3-3.81-4.79-3.76h-.49c-3.26,0-3.43,1.22-4,5.19v2A81.84,81.84,0,0,0,294.45,80.69Z"/><path class="cls-1" d="M315,59V57.54c0-.11.17-.8.22-1a.31.31,0,0,1,.33-.32c.11-.05,1-.05,1.25-.1,2.07-.06,5.28-.54,7.35-.54,2.5,0,8.87.06,11.21,1,3.92,1.54,5.06,6.25,4.79,10.17-.44,6.89-4,8.27-6.8,9.12l6.25,15.68c0,.11-.05.48-.05.59-.27,1.22-4.52.9-5.55,1.11H330.8c-.71,0-1.2-1.38-1.52-1.91l-4-11a2.82,2.82,0,0,0-.11.9v.21c0,.64-.11,7.42.11,8.22.05.74.16,1.32.16,2,0,1.48-1.3,1.11-2.39,1.17-.82,0-3,.1-6.53,0-.33,0-.44-.27-.6-.53a8.64,8.64,0,0,1-.38-3.18Zm9.69,11.5a.65.65,0,0,1,.11.31,4.08,4.08,0,0,0,1.14.16c2.23,0,5.45-1,5.45-3.18,0-2.49-.22-4.4-3.05-5.35a26.12,26.12,0,0,0-3.54,0h-.27Z"/><g id="_016---Macaque-Monkey" data-name="016---Macaque-Monkey"><path id="Shape" class="cls-2" d="M96.48,84.66h10.93c3.13,0,6.25-3.08,6.25-12.32V24.59c0-4.62-2.28-4.62-3.12-4.62-1.14,0-2.69,0-3.13,2.21a3.09,3.09,0,0,1-2.09,2.46,3.15,3.15,0,0,1-3.18-.7,3,3,0,0,1-.8-3.12,8.77,8.77,0,0,1,9.2-7c4.68,0,9.36,3.08,9.36,10.78V72.34c0,17.14-9.55,18.48-12.49,18.48H85.55Z"/><path id="Shape-2" data-name="Shape" class="cls-3" d="M101.17,66.18c0,11.09-4.52,26.18-15.62,26.18l-25-16.94c-4.68-7.7-9.37-21.56-9.37-32.34,0-2.36,1.16-16.33,1.56-18.49l16,1.54C98.46,33.83,101.17,56.94,101.17,66.18Z"/><path id="Shape-3" data-name="Shape" class="cls-3" d="M60.56,55.4V83.12c0,4-4.57,2.27-5.9,5.56a1.54,1.54,0,0,0,.14,1.47,1.58,1.58,0,0,0,1.33.67h31Z"/><path id="Shape-4" data-name="Shape" class="cls-2" d="M87.11,92.36h-31A3.13,3.13,0,0,1,53.52,91a3,3,0,0,1-.31-2.89,5.89,5.89,0,0,1,4-3.3c1.56-.55,1.76-.71,1.76-1.71V55.4a1.56,1.56,0,0,1,3.12,0V83.12c0,3.22-2.29,4-3.81,4.62-1.18.43-1.86.73-2.2,1.54h31a1.54,1.54,0,1,1,0,3.08Z"/><path id="Shape-5" data-name="Shape" class="cls-2" d="M93.36,89.28a11.25,11.25,0,0,1-7.81,3.08H65.25a1.55,1.55,0,0,1-1.56-1.54c0-6.56,5.85-5.36,6.24-7.25a8,8,0,0,1-1.08-2.51c-2.48-9.35,4.21-18.79,13.2-21a1.59,1.59,0,0,1,1.54.44A1.57,1.57,0,0,1,84,62a1.61,1.61,0,0,1-1.16,1.1C77.24,64.47,71.49,70.05,71.49,77a9.67,9.67,0,0,0,1,4.82,3,3,0,0,1,.5,2.47c-.82,3.82-5.12,3-6,5Z"/><path id="Shape-6" data-name="Shape" class="cls-3" d="M51.32,46.16a40.79,40.79,0,0,0-5.25,9.44,1.57,1.57,0,0,1-2.76.2l-2.6-4.27a1.55,1.55,0,0,0-1.34-.75H32.45a3.08,3.08,0,1,0,0,6.16h3.77a1.55,1.55,0,0,1,1.37.78l7,12.33a1.57,1.57,0,0,0,1.88.75A11,11,0,0,0,54.32,61Z"/><path id="Shape-7" data-name="Shape" class="cls-2" d="M71.93,21.51a11.86,11.86,0,0,1-11.37,7.7,4.88,4.88,0,0,0-4.32,2.42,10.12,10.12,0,0,1-6.58,5,10.24,10.24,0,0,1-8.17-1.55C36,31.25,34.86,22.08,43.06,19A3.08,3.08,0,0,0,45,16.09C44.76,0,65.4-3.44,71.62,9.19Z"/><path id="Shape-8" data-name="Shape" class="cls-4" d="M62.12,23.33c-2.17,2.05-2.65,3.47-5.43,7.61a3.75,3.75,0,0,0-.49.69,10.16,10.16,0,0,1-19.08-5A8.17,8.17,0,0,1,43,19.08,3.08,3.08,0,0,0,45,16a10,10,0,0,1,7.74-9.49A10.18,10.18,0,0,1,64,11.41a9.9,9.9,0,0,1-1.87,12Z"/><ellipse id="Oval" class="cls-3" cx="71.49" cy="15.35" rx="6.25" ry="6.16"/><path id="Shape-9" data-name="Shape" class="cls-5" d="M49.18,30.31a19.68,19.68,0,0,1-7.7,4.79,10.15,10.15,0,0,1-2.36-2.31,1.62,1.62,0,0,1,.83-.5,15.72,15.72,0,0,0,7-4.2,1.59,1.59,0,0,1,2.22,0,1.54,1.54,0,0,1,0,2.19Z"/><path id="Shape-10" data-name="Shape" class="cls-3" d="M41.82,26.13a1.55,1.55,0,0,1-1.56,1.54H37.14a8.23,8.23,0,0,1,.25-3.08h2.87A1.55,1.55,0,0,1,41.82,26.13Z"/><path class="cls-6" d="M50.71,14.64s5.07.15,7.63-2.69"/><circle class="cls-2" cx="54.93" cy="15.15" r="1.47"/></g><rect class="cls-7" x="5.48" y="57.18" width="31.4" height="7.91"/><rect class="cls-7" x="-9.66" y="40.83" width="31.4" height="6.27" transform="translate(-35.99 58.2) rotate(-100.89)"/><rect class="cls-8" x="3.82" y="65.1" width="34.72" height="5.78" rx="2.89"/><rect class="cls-8" x="-1.79" y="75.84" width="24.62" height="5.78" transform="translate(88.45 94.08) rotate(108.76)"/><rect class="cls-8" x="20.11" y="75.84" width="24.62" height="5.78" transform="translate(96.55 22.71) rotate(71.24)"/></g></g></svg>