<svg xmlns="http://www.w3.org/2000/svg" viewBox="0 0 119.9 90.83"><defs><style>.cls-1{fill:#805333;}.cls-2{fill:#a56a43;}.cls-3{fill:#cf976a;}.cls-4{fill:#802d40;}.cls-5{fill:none;stroke:#805333;stroke-linecap:round;stroke-miterlimit:10;stroke-width:2px;}.cls-6{fill:#333;}.cls-7{fill:#c69c6d;}</style></defs><title>mini-logo boosted</title><g id="Layer_2" data-name="Layer 2"><g id="Layer_1-2" data-name="Layer 1"><g id="_016---Macaque-Monkey" data-name="016---Macaque-Monkey"><path id="Shape" class="cls-1" d="M96.48,83.13h10.93c3.13,0,6.25-3.08,6.25-12.33V23.06c0-4.62-2.28-4.62-3.12-4.62-1.14,0-2.69,0-3.13,2.2a3.1,3.1,0,0,1-2.09,2.47,3.15,3.15,0,0,1-3.18-.71,3,3,0,0,1-.8-3.12,8.78,8.78,0,0,1,9.2-7c4.68,0,9.36,3.09,9.36,10.79V70.8c0,17.15-9.55,18.49-12.49,18.49H85.55Z"/><path id="Shape-2" data-name="Shape" class="cls-2" d="M101.17,64.64c0,11.09-4.52,26.19-15.62,26.19l-25-17c-4.68-7.7-9.37-21.56-9.37-32.34,0-2.36,1.16-16.33,1.56-18.48l16,1.54C98.46,32.3,101.17,55.4,101.17,64.64Z"/><path id="Shape-3" data-name="Shape" class="cls-2" d="M60.56,53.86V81.59c0,4-4.57,2.26-5.9,5.56a1.52,1.52,0,0,0,.14,1.46,1.59,1.59,0,0,0,1.33.68h31Z"/><path id="Shape-4" data-name="Shape" class="cls-1" d="M87.11,90.83h-31a3.16,3.16,0,0,1-2.61-1.35,3,3,0,0,1-.31-2.89,5.88,5.88,0,0,1,4-3.29c1.56-.56,1.76-.71,1.76-1.71V53.86a1.56,1.56,0,0,1,3.12,0V81.59c0,3.21-2.29,4-3.81,4.62-1.18.43-1.86.72-2.2,1.54h31a1.54,1.54,0,1,1,0,3.08Z"/><path id="Shape-5" data-name="Shape" class="cls-1" d="M93.36,87.75a11.29,11.29,0,0,1-7.81,3.08H65.25a1.55,1.55,0,0,1-1.56-1.54c0-6.56,5.85-5.36,6.24-7.26a8,8,0,0,1-1.08-2.51c-2.48-9.35,4.21-18.79,13.2-21a1.62,1.62,0,0,1,1.54.45A1.56,1.56,0,0,1,84,60.47a1.6,1.6,0,0,1-1.16,1.09c-5.58,1.37-11.33,7-11.33,13.86a9.73,9.73,0,0,0,1,4.83,3,3,0,0,1,.5,2.46c-.82,3.82-5.12,3-6,5Z"/><path id="Shape-6" data-name="Shape" class="cls-2" d="M51.32,44.62a41,41,0,0,0-5.25,9.44,1.57,1.57,0,0,1-2.76.2L40.71,50a1.56,1.56,0,0,0-1.34-.76H32.45a3.08,3.08,0,1,0,0,6.16h3.77a1.58,1.58,0,0,1,1.37.79l7,12.32a1.57,1.57,0,0,0,1.88.75,11,11,0,0,0,7.81-9.82Z"/><path id="Shape-7" data-name="Shape" class="cls-1" d="M71.93,20a11.87,11.87,0,0,1-11.37,7.7,4.86,4.86,0,0,0-4.32,2.42,10.11,10.11,0,0,1-6.58,5,10.24,10.24,0,0,1-8.17-1.55c-5.52-3.85-6.63-13,1.57-16.08A3.08,3.08,0,0,0,45,14.55C44.76-1.49,65.4-5,71.62,7.65Z"/><path id="Shape-8" data-name="Shape" class="cls-3" d="M62.12,21.79c-2.17,2.05-2.65,3.47-5.43,7.61a4.19,4.19,0,0,0-.49.7,10.16,10.16,0,0,1-19.08-5A8.17,8.17,0,0,1,43,17.54,3.08,3.08,0,0,0,45,14.46,10,10,0,0,1,52.69,5,10.2,10.2,0,0,1,64,9.88a9.9,9.9,0,0,1-1.87,12Z"/><ellipse id="Oval" class="cls-2" cx="71.49" cy="13.82" rx="6.25" ry="6.16"/><path id="Shape-9" data-name="Shape" class="cls-4" d="M49.18,28.77a19.68,19.68,0,0,1-7.7,4.79,9.77,9.77,0,0,1-2.36-2.31,1.54,1.54,0,0,1,.83-.49,15.83,15.83,0,0,0,7-4.21,1.59,1.59,0,0,1,2.22,0,1.54,1.54,0,0,1,0,2.19Z"/><path id="Shape-10" data-name="Shape" class="cls-2" d="M41.82,24.6a1.55,1.55,0,0,1-1.56,1.54H37.14a8.19,8.19,0,0,1,.25-3.08h2.87A1.55,1.55,0,0,1,41.82,24.6Z"/><path class="cls-5" d="M50.71,13.1s5.07.15,7.63-2.68"/><circle class="cls-1" cx="54.93" cy="13.61" r="1.47"/></g><rect class="cls-6" x="5.48" y="55.64" width="31.4" height="7.91"/><rect class="cls-6" x="-9.66" y="39.29" width="31.4" height="6.27" transform="translate(-34.48 56.37) rotate(-100.89)"/><rect class="cls-7" x="3.82" y="63.56" width="34.72" height="5.78" rx="2.89"/><rect class="cls-7" x="-1.79" y="74.3" width="24.62" height="5.78" transform="translate(86.99 92.05) rotate(108.76)"/><rect class="cls-7" x="20.11" y="74.3" width="24.62" height="5.78" transform="translate(95.09 21.67) rotate(71.24)"/></g></g></svg>